<svg width="48" height="48" viewBox="0 0 48 48" fill="none" xmlns="http://www.w3.org/2000/svg">
<circle cx="24" cy="24" r="24" fill="#EEF5FE"/>
<g opacity="0.5">
<path d="M36.9021 32.8557C36.3528 30.7179 35.273 28.7534 33.7626 27.1439C32.2522 25.5344 30.3602 24.3321 28.2616 23.6482C29.1628 23.012 29.8979 22.1684 30.4049 21.1886C30.9118 20.2088 31.1757 19.1214 31.1743 18.0182C31.1486 16.1378 30.3795 14.3441 29.0351 13.029C27.6908 11.714 25.8805 10.9846 24 11.0002C22.1262 10.9949 20.326 11.7289 18.9901 13.0428C17.6542 14.3568 16.8905 16.1446 16.8648 18.0182C16.8606 19.1177 17.1192 20.2023 17.6191 21.1816C18.1189 22.1609 18.8455 23.0066 19.7384 23.6482C17.6398 24.3321 15.7478 25.5344 14.2374 27.1439C12.727 28.7534 11.6472 30.7179 11.0979 32.8557C10.9751 33.3411 10.9677 33.8486 11.0763 34.3375C11.185 34.8263 11.4066 35.2829 11.7235 35.6707C12.0611 36.0864 12.4873 36.4215 12.9709 36.6514C13.4545 36.8814 13.9834 37.0005 14.5189 37H33.4811C34.0166 37.0005 34.5455 36.8814 35.0291 36.6514C35.5127 36.4215 35.9389 36.0864 36.2765 35.6707C36.5934 35.2829 36.815 34.8263 36.9237 34.3375C37.0323 33.8486 37.0249 33.3411 36.9021 32.8557ZM24 25.0362C26.4783 25.0122 28.8937 25.8166 30.8628 27.3217C32.8319 28.8269 34.2419 30.9466 34.869 33.3444C34.9149 33.5278 34.9157 33.7196 34.8715 33.9034C34.8272 34.0872 34.7392 34.2576 34.6149 34.4C34.4784 34.5683 34.3053 34.7033 34.1089 34.7948C33.9124 34.8862 33.6977 34.9317 33.4811 34.9278H14.5189C14.3043 34.9364 14.0904 34.899 13.8915 34.8181C13.6925 34.7372 13.5132 34.6146 13.3656 34.4587C13.2474 34.3129 13.1647 34.1417 13.124 33.9585C13.0833 33.7753 13.0857 33.5851 13.131 33.403C13.747 30.9943 15.1522 28.8614 17.1223 27.3449C19.0925 25.8283 21.5139 25.0155 24 25.0362ZM18.9369 18.0182C18.9369 16.6754 19.4703 15.3876 20.4199 14.4381C21.3694 13.4885 22.6572 12.9551 24 12.9551C25.3428 12.9551 26.6306 13.4885 27.5801 14.4381C28.5297 15.3876 29.0631 16.6754 29.0631 18.0182C29.0631 19.361 28.5297 20.6489 27.5801 21.5984C26.6306 22.5479 25.3428 23.0813 24 23.0813C22.6572 23.0813 21.3694 22.5479 20.4199 21.5984C19.4703 20.6489 18.9369 19.361 18.9369 18.0182Z" fill="#4A90E2"/>
</g>
</svg>
